HIERARCHY
ROOT hip
{
  OFFSET 0 0 0
  CHANNELS 6 Xposition Yposition Zposition Zrotation Yrotation Xrotation
  JOINT abdomen
  {
    OFFSET 0 20.6881 -0.73152
    CHANNELS 3 Zrotation Xrotation Yrotation
    JOINT chest
    {
      OFFSET 0 11.7043 -0.48768
      CHANNELS 3 Zrotation Xrotation Yrotation
      JOINT neck
      {
        OFFSET 0 22.1894 -2.19456
        CHANNELS 3 Zrotation Xrotation Yrotation
        JOINT head
        {
          OFFSET -0.24384 7.07133 1.2192
          CHANNELS 3 Zrotation Xrotation Yrotation
          JOINT leftEye
          {
            OFFSET 4.14528 8.04674 8.04672
            CHANNELS 3 Zrotation Xrotation Yrotation
            End Site
            {
              OFFSET 1 0 0
            }
          }
          JOINT rightEye
          {
            OFFSET -3.6576 8.04674 8.04672
            CHANNELS 3 Zrotation Xrotation Yrotation
            End Site
            {
              OFFSET 1 0 0
            }
          }
        }
      }
      JOINT rCollar
      {
        OFFSET -2.68224 19.2634 -4.8768
        CHANNELS 3 Zrotation Xrotation Yrotation
        JOINT rShldr
        {
          OFFSET -8.77824 -1.95073 1.46304
          CHANNELS 3 Zrotation Xrotation Yrotation
          JOINT rForeArm
          {
            OFFSET -28.1742 -1.7115 0.48768
            CHANNELS 3 Zrotation Xrotation Yrotation
            JOINT rHand
            {
              OFFSET -22.5879 0.773209 7.07136
              CHANNELS 3 Zrotation Xrotation Yrotation
              JOINT rThumb1
              {
                OFFSET -1.2192 -0.487915 3.41376
                CHANNELS 3 Zrotation Xrotation Yrotation
                JOINT rThumb2
                {
                  OFFSET -3.37035 -0.52449 3.41376
                  CHANNELS 3 Zrotation Xrotation Yrotation
                  End Site
                  {
                    OFFSET -1.78271 -1.18214 1.43049
                  }
                }
              }
              JOINT rIndex1
              {
                OFFSET -7.75947 0.938293 5.60832
                CHANNELS 3 Zrotation Xrotation Yrotation
                JOINT rIndex2
                {
                  OFFSET -2.54057 -0.884171 1.56538
                  CHANNELS 3 Zrotation Xrotation Yrotation
                  End Site
                  {
                    OFFSET -1.62519 -0.234802 1.16502
                  }
                }
              }
              JOINT rMid1
              {
                OFFSET -8.24714 1.18213 3.41376
                CHANNELS 3 Zrotation Xrotation Yrotation
                JOINT rMid2
                {
                  OFFSET -3.10165 -0.590103 1.0647
                  CHANNELS 3 Zrotation Xrotation Yrotation
                  End Site
                  {
                    OFFSET -2.48547 -0.328903 0.83742
                  }
                }
              }
              JOINT rRing1
              {
                OFFSET -8.82822 0.546677 1.51678
                CHANNELS 3 Zrotation Xrotation Yrotation
                JOINT rRing2
                {
                  OFFSET -2.60934 -0.819778 -0.0198488
                  CHANNELS 3 Zrotation Xrotation Yrotation
                  End Site
                  {
                    OFFSET -2.33842 -0.294052 0.168128
                  }
                }
              }
              JOINT rPinky1
              {
                OFFSET -8.27202 -0.0477905 -0.4584
                CHANNELS 3 Zrotation Xrotation Yrotation
                JOINT rPinky2
                {
                  OFFSET -1.82734 -0.647385 -0.700984
                  CHANNELS 3 Zrotation Xrotation Yrotation
                  End Site
                  {
                    OFFSET -1.69225 -0.51767 -0.607171
                  }
                }
              }
            }
          }
        }
      }
      JOINT lCollar
      {
        OFFSET 2.68224 19.2634 -4.8768
        CHANNELS 3 Zrotation Xrotation Yrotation
        JOINT lShldr
        {
          OFFSET 8.77824 -1.95073 1.46304
          CHANNELS 3 Zrotation Xrotation Yrotation
          JOINT lForeArm
          {
            OFFSET 28.1742 -1.7115 0.48768
            CHANNELS 3 Zrotation Xrotation Yrotation
            JOINT lHand
            {
              OFFSET 22.5879 0.773209 7.07136
              CHANNELS 3 Zrotation Xrotation Yrotation
              JOINT lThumb1
              {
                OFFSET 1.2192 -0.487915 3.41376
                CHANNELS 3 Zrotation Xrotation Yrotation
                JOINT lThumb2
                {
                  OFFSET 3.37035 -0.52449 3.41376
                  CHANNELS 3 Zrotation Xrotation Yrotation
                  End Site
                  {
                    OFFSET 1.78271 -1.18214 1.43049
                  }
                }
              }
              JOINT lIndex1
              {
                OFFSET 7.75947 0.938293 5.60832
                CHANNELS 3 Zrotation Xrotation Yrotation
                JOINT lIndex2
                {
                  OFFSET 2.54057 -0.884171 1.56538
                  CHANNELS 3 Zrotation Xrotation Yrotation
                  End Site
                  {
                    OFFSET 1.62519 -0.234802 1.16502
                  }
                }
              }
              JOINT lMid1
              {
                OFFSET 8.24714 1.18213 3.41376
                CHANNELS 3 Zrotation Xrotation Yrotation
                JOINT lMid2
                {
                  OFFSET 3.10165 -0.590103 1.0647
                  CHANNELS 3 Zrotation Xrotation Yrotation
                  End Site
                  {
                    OFFSET 2.48547 -0.328903 0.83742
                  }
                }
              }
              JOINT lRing1
              {
                OFFSET 8.82822 0.546677 1.51678
                CHANNELS 3 Zrotation Xrotation Yrotation
                JOINT lRing2
                {
                  OFFSET 2.60934 -0.819778 -0.0198488
                  CHANNELS 3 Zrotation Xrotation Yrotation
                  End Site
                  {
                    OFFSET 2.33842 -0.294052 0.168128
                  }
                }
              }
              JOINT lPinky1
              {
                OFFSET 8.27202 -0.0477905 -0.4584
                CHANNELS 3 Zrotation Xrotation Yrotation
                JOINT lPinky2
                {
                  OFFSET 1.82734 -0.647385 -0.700984
                  CHANNELS 3 Zrotation Xrotation Yrotation
                  End Site
                  {
                    OFFSET 1.69225 -0.51767 -0.607171
                  }
                }
              }
            }
          }
        }
      }
    }
  }
  JOINT rButtock
  {
    OFFSET -8.77824 4.35084 1.2192
    CHANNELS 3 Zrotation Xrotation Yrotation
    JOINT rThigh
    {
      OFFSET 0 -1.70687 -2.19456
      CHANNELS 3 Zrotation Xrotation Yrotation
      JOINT rShin
      {
        OFFSET 0 -36.8199 0.73152
        CHANNELS 3 Zrotation Xrotation Yrotation
        JOINT rFoot
        {
          OFFSET 0.73152 -45.1104 -5.12064
          CHANNELS 3 Zrotation Xrotation Yrotation
          End Site
          {
            OFFSET -1.1221 -3.69964 12.103
          }
        }
      }
    }
  }
  JOINT lButtock
  {
    OFFSET 8.77824 4.35084 1.2192
    CHANNELS 3 Zrotation Xrotation Yrotation
    JOINT lThigh
    {
      OFFSET 0 -1.70687 -2.19456
      CHANNELS 3 Zrotation Xrotation Yrotation
      JOINT lShin
      {
        OFFSET 0 -36.8199 0.73152
        CHANNELS 3 Zrotation Xrotation Yrotation
        JOINT lFoot
        {
          OFFSET -0.73152 -45.1104 -5.12064
          CHANNELS 3 Zrotation Xrotation Yrotation
          End Site
          {
            OFFSET 1.1221 -3.69964 12.103
          }
        }
      }
    }
  }
}
MOTION
Frames:	4
Frame Time:	0.00833333
0.0 0.0 0.0 0.0 0.0 0.0 0.0 0.0 0.0 0.0 0.0 0.0 0.0 0.0 0.0 0.0 0.0 0.0 0.0 0.0 0.0 0.0 0.0 0.0 0.0 0.0 0.0 0.0 0.0 0.0 0.0 0.0 0.0 0.0 0.0 0.0 0.0 0.0 0.0 0.0 0.0 0.0 0.0 0.0 0.0 0.0 0.0 0.0 0.0 0.0 0.0 0.0 0.0 0.0 0.0 0.0 0.0 0.0 0.0 0.0 0.0 0.0 0.0 0.0 0.0 0.0 0.0 0.0 0.0 0.0 0.0 0.0 0.0 0.0 0.0 0.0 0.0 0.0 0.0 0.0 0.0 0.0 0.0 0.0 0.0 0.0 0.0 0.0 0.0 0.0 0.0 0.0 0.0 0.0 0.0 0.0 0.0 0.0 0.0 0.0 0.0 0.0 0.0 0.0 0.0 0.0 0.0 0.0 0.0 0.0 0.0 0.0 0.0 0.0 0.0 0.0 0.0 0.0 0.0 0.0 0.0 0.0 0.0 0.0 0.0 0.0 0.0 0.0 0.0 0.0 0.0 0.0
0.010799999999999999 62.12220000000001 0.1116 -179.725734 -66.533762 178.815504 -0.204095 -0.945193 167.814668 3.454269 -12.397728 -163.04964 -6.968387 -2.575457 -126.936738 43.835089 33.647743 109.832434 36.763937 -0.122219 -0.367789 31.025587 -7.869211 -27.834843 63.245205 27.767567 11.902149 -164.988471 -28.287864 169.113423 -178.937885 6.034284 -33.050904 2.098542 18.720197 -56.826789 2.875374 -13.757758 33.917903 22.372458 17.033392 -147.046211 40.056832 33.941149 -89.797569 -12.673429 -25.885137 40.754385 143.1758 31.237963 -117.610706 -158.507832 -7.93747 140.099173 79.946393 19.269309 -79.42839 10.186744 26.566242 -0.392732 85.884571 17.529601 -60.089246 -140.924057 -7.779541 -137.474965 89.456271 -54.393279 -169.080198 -13.146899 -62.916375 -4.514958 163.991333 43.566238 31.141449 -23.285272 -39.950674 21.315224 177.255972 3.406259 -79.276191 -49.611946 -61.436578 -21.138218 -4.702068 -29.882996 -15.418576 137.061615 20.225378 -102.335808 163.585602 9.533844 -131.683932 177.885872 -30.48655 -146.277989 -160.240788 23.960376 60.704989 -9.37693 13.847374 6.880514 167.405013 37.590506 42.892977 -22.41701 57.972508 -7.23728 -18.188188 52.63535 -156.4789 1.437971 53.525732 114.156421 -2.87075 6.765224 -144.10268 -65.488365 -17.417389 112.362701 -4.550797 -48.643873 -6.052903 1.41193 49.924008 -1.062427 2.755267 -4.530121 30.005601 -46.039027 69.699536 42.345747
0.1636 53.2527 0.2817 -13.461687 -52.302326 12.619315 2.522777 6.694235 141.014446 -5.924843 4.182705 -122.794619 -9.758357 24.761919 -86.971303 31.64118 13.788352 117.821854 0.576523 -0.013372 -2.657292 -0.870628 -0.00519 0.68313 2.277842 -18.202041 -3.658575 -101.316259 -29.403423 -159.574354 -174.870551 -26.526875 -68.037389 -11.530873 -49.945987 -10.447737 179.358555 -15.54405 92.866743 -7.291712 -51.865646 4.359575 -170.509332 -51.515165 125.132953 -172.807696 -40.337054 111.31667 -92.838604 61.350058 80.01501 -153.449032 14.401153 137.369656 -4.566452 0.912508 0.179098 -156.697988 -7.244207 174.982148 -151.817954 6.363361 -138.134276 166.686387 69.533395 -124.486019 -0.59085 0.033446 -0.703453 118.678409 -13.02717 -137.797939 -171.326013 34.467949 89.381222 13.819644 57.348934 -5.02106 170.24872 -7.040234 -87.330649 75.537312 4.15568 -27.713347 148.633132 -12.681441 -120.251599 155.69766 -5.682636 -124.07185 -11.98326 -37.31531 1.859731 0.269664 8.094723 0.983063 1.556495 -1.044676 -1.048128 -11.692293 14.39845 -5.143582 -17.61233 43.620525 -8.725352 8.415522 0.798693 5.389078 -179.851485 76.955128 -0.104175 148.587156 37.262804 -180.0 -53.422403 -87.340806 -150.110675 -116.180586 87.122058 15.120743 0.576053 -1.262949 0.563737 69.073475 -47.525539 63.521011 81.762073 86.720747 64.057675 84.447326 58.047294 -177.896611
0.3759 52.0418 0.315 -11.289608 -53.816631 10.724824 1.161346 11.780383 -0.189756 0.212579 -12.030765 18.337954 -8.430821 16.643889 -42.53443 28.670155 -5.430832 73.622609 0.385213 0.00111 0.330094 -0.549828 0.001727 -0.359833 -147.954718 28.77503 153.231939 16.599674 -51.789575 64.045592 -179.111652 60.275576 34.981009 -134.805432 37.320255 120.161552 -94.736425 38.712596 54.577488 179.882744 -41.528427 74.096757 -125.745765 22.274648 106.935196 2.316375 8.590393 -7.401044 -33.792337 52.995132 27.544882 1.568438 0.52614 1.954271 -73.570899 -72.794474 -91.38772 -153.684937 3.191516 174.679013 -158.219528 57.079846 -150.527646 -39.902922 -51.906543 -37.029372 81.505602 68.12911 -84.901138 106.157755 39.072167 -74.881574 -21.997378 -60.528463 102.634586 -154.532407 -35.505553 -140.167057 0.718963 0.107132 -1.180064 17.20162 15.390946 -15.351772 -167.439841 -65.88116 -108.216336 173.038166 -42.603223 -112.657796 38.462967 50.721495 -30.981899 168.890767 -26.769327 -142.416404 146.753426 0.149093 179.3492 158.486388 1.294995 178.817667 142.025626 -1.42518 136.684529 21.613913 -39.860154 25.079425 -175.95567 74.931274 -2.722509 147.634505 34.382633 -96.85415 -90.972851 -5.072393 175.578908 141.318744 86.576485 113.652104 4.254573 0.802803 2.139501 65.959365 -48.207862 59.980775 -49.504839 86.086155 -172.182254 130.364372 63.122036 148.21035
